<svg height="320" width="320" shapeRendering="crispEdges" viewBox="0 0 29 29" style="width: 320px; height: 320px;" xmlns="http://www.w3.org/2000/svg"><path fill="#fff" d="M0,0 h29v29H0z"/><path fill="#000" d="M0 0h7v1H0zM8 0h2v1H8zM14 0h1v1H14zM16 0h1v1H16zM19 0h2v1H19zM22,0 h7v1H22zM0 1h1v1H0zM6 1h1v1H6zM17 1h2v1H17zM22 1h1v1H22zM28,1 h1v1H28zM0 2h1v1H0zM2 2h3v1H2zM6 2h1v1H6zM8 2h1v1H8zM11 2h4v1H11zM19 2h1v1H19zM22 2h1v1H22zM24 2h3v1H24zM28,2 h1v1H28zM0 3h1v1H0zM2 3h3v1H2zM6 3h1v1H6zM8 3h2v1H8zM11 3h1v1H11zM13 3h5v1H13zM19 3h2v1H19zM22 3h1v1H22zM24 3h3v1H24zM28,3 h1v1H28zM0 4h1v1H0zM2 4h3v1H2zM6 4h1v1H6zM8 4h4v1H8zM15 4h2v1H15zM19 4h1v1H19zM22 4h1v1H22zM24 4h3v1H24zM28,4 h1v1H28zM0 5h1v1H0zM6 5h1v1H6zM9 5h1v1H9zM12 5h3v1H12zM19 5h1v1H19zM22 5h1v1H22zM28,5 h1v1H28zM0 6h7v1H0zM8 6h1v1H8zM10 6h1v1H10zM12 6h1v1H12zM14 6h1v1H14zM16 6h1v1H16zM18 6h1v1H18zM20 6h1v1H20zM22,6 h7v1H22zM9 7h1v1H9zM11 7h1v1H11zM14 7h1v1H14zM16 7h2v1H16zM20 7h1v1H20zM0 8h4v1H0zM6 8h1v1H6zM8 8h1v1H8zM14 8h8v1H14zM24 8h3v1H24zM28,8 h1v1H28zM0 9h5v1H0zM7 9h3v1H7zM13 9h1v1H13zM17 9h4v1H17zM22 9h3v1H22zM28,9 h1v1H28zM0 10h5v1H0zM6 10h1v1H6zM13 10h1v1H13zM16 10h1v1H16zM18 10h1v1H18zM21 10h1v1H21zM26 10h2v1H26zM2 11h2v1H2zM5 11h1v1H5zM11 11h5v1H11zM18 11h1v1H18zM20 11h3v1H20zM24 11h1v1H24zM28,11 h1v1H28zM1 12h1v1H1zM3 12h2v1H3zM6 12h4v1H6zM11 12h1v1H11zM13 12h3v1H13zM17 12h1v1H17zM19 12h1v1H19zM23 12h1v1H23zM25 12h2v1H25zM1 13h1v1H1zM4 13h2v1H4zM10 13h2v1H10zM15 13h2v1H15zM19 13h4v1H19zM26,13 h3v1H26zM1 14h1v1H1zM5 14h2v1H5zM10 14h1v1H10zM12 14h1v1H12zM16 14h5v1H16zM22 14h1v1H22zM24 14h1v1H24zM26,14 h3v1H26zM2 15h4v1H2zM8 15h1v1H8zM12 15h1v1H12zM16 15h1v1H16zM18 15h1v1H18zM20 15h4v1H20zM27 15h1v1H27zM0 16h1v1H0zM2 16h1v1H2zM4 16h3v1H4zM9 16h1v1H9zM11 16h1v1H11zM13 16h1v1H13zM15 16h1v1H15zM19 16h3v1H19zM23 16h3v1H23zM27 16h1v1H27zM1 17h2v1H1zM7 17h2v1H7zM10 17h1v1H10zM12 17h1v1H12zM15 17h1v1H15zM17 17h1v1H17zM20 17h1v1H20zM23 17h1v1H23zM25 17h3v1H25zM0 18h1v1H0zM6 18h2v1H6zM9 18h1v1H9zM11 18h2v1H11zM15 18h2v1H15zM20 18h1v1H20zM22 18h3v1H22zM26 18h1v1H26zM2 19h1v1H2zM4 19h1v1H4zM7 19h3v1H7zM12 19h1v1H12zM17 19h3v1H17zM23 19h2v1H23zM26 19h1v1H26zM1 20h1v1H1zM6 20h1v1H6zM9 20h1v1H9zM11 20h2v1H11zM14 20h5v1H14zM20 20h7v1H20zM8 21h2v1H8zM12 21h1v1H12zM16 21h1v1H16zM20 21h1v1H20zM24,21 h5v1H24zM0 22h7v1H0zM10 22h3v1H10zM14 22h1v1H14zM17 22h4v1H17zM22 22h1v1H22zM24 22h2v1H24zM27 22h1v1H27zM0 23h1v1H0zM6 23h1v1H6zM9 23h2v1H9zM13 23h2v1H13zM20 23h1v1H20zM24 23h2v1H24zM27 23h1v1H27zM0 24h1v1H0zM2 24h3v1H2zM6 24h1v1H6zM12 24h3v1H12zM17 24h1v1H17zM20 24h5v1H20zM26,24 h3v1H26zM0 25h1v1H0zM2 25h3v1H2zM6 25h1v1H6zM8 25h2v1H8zM11 25h6v1H11zM19 25h1v1H19zM23 25h3v1H23zM28,25 h1v1H28zM0 26h1v1H0zM2 26h3v1H2zM6 26h1v1H6zM8 26h4v1H8zM13 26h2v1H13zM17 26h3v1H17zM23 26h1v1H23zM26 26h1v1H26zM28,26 h1v1H28zM0 27h1v1H0zM6 27h1v1H6zM8 27h4v1H8zM16 27h1v1H16zM20 27h1v1H20zM22 27h1v1H22zM24 27h2v1H24zM27 27h1v1H27zM0 28h7v1H0zM8 28h1v1H8zM14 28h2v1H14zM18 28h3v1H18zM22 28h1v1H22zM25 28h1v1H25zM27 28h1v1H27z"/></svg>