<?xml version="1.0" standalone="no"?>
<svg xmlns="http://www.w3.org/2000/svg" width="1080" height="1080"><defs><clipPath id="clip-path-dot-color"><rect x="0" y="240" width="24" height="24" transform="rotate(0,12,252)"/><rect x="0" y="264" width="24" height="24" transform="rotate(0,12,276)"/><rect x="0" y="288" width="24" height="24" transform="rotate(0,12,300)"/><rect x="0" y="336" width="24" height="24" transform="rotate(0,12,348)"/><rect x="0" y="384" width="24" height="24" transform="rotate(0,12,396)"/><rect x="0" y="408" width="24" height="24" transform="rotate(0,12,420)"/><rect x="0" y="480" width="24" height="24" transform="rotate(0,12,492)"/><rect x="0" y="552" width="24" height="24" transform="rotate(0,12,564)"/><rect x="0" y="576" width="24" height="24" transform="rotate(0,12,588)"/><rect x="0" y="696" width="24" height="24" transform="rotate(0,12,708)"/><rect x="0" y="720" width="24" height="24" transform="rotate(0,12,732)"/><rect x="0" y="744" width="24" height="24" transform="rotate(0,12,756)"/><rect x="0" y="768" width="24" height="24" transform="rotate(0,12,780)"/><rect x="0" y="864" width="24" height="24" transform="rotate(0,12,876)"/><rect x="24" y="192" width="24" height="24" transform="rotate(0,36,204)"/><rect x="24" y="216" width="24" height="24" transform="rotate(0,36,228)"/><rect x="24" y="264" width="24" height="24" transform="rotate(0,36,276)"/><rect x="24" y="288" width="24" height="24" transform="rotate(0,36,300)"/><rect x="24" y="552" width="24" height="24" transform="rotate(0,36,564)"/><rect x="24" y="600" width="24" height="24" transform="rotate(0,36,612)"/><rect x="24" y="624" width="24" height="24" transform="rotate(0,36,636)"/><rect x="24" y="648" width="24" height="24" transform="rotate(0,36,660)"/><rect x="24" y="768" width="24" height="24" transform="rotate(0,36,780)"/><rect x="24" y="792" width="24" height="24" transform="rotate(0,36,804)"/><rect x="24" y="840" width="24" height="24" transform="rotate(0,36,852)"/><rect x="48" y="216" width="24" height="24" transform="rotate(0,60,228)"/><rect x="48" y="240" width="24" height="24" transform="rotate(0,60,252)"/><rect x="48" y="288" width="24" height="24" transform="rotate(0,60,300)"/><rect x="48" y="312" width="24" height="24" transform="rotate(0,60,324)"/><rect x="48" y="360" width="24" height="24" transform="rotate(0,60,372)"/><rect x="48" y="432" width="24" height="24" transform="rotate(0,60,444)"/><rect x="48" y="456" width="24" height="24" transform="rotate(0,60,468)"/><rect x="48" y="480" width="24" height="24" transform="rotate(0,60,492)"/><rect x="48" y="504" width="24" height="24" transform="rotate(0,60,516)"/><rect x="48" y="528" width="24" height="24" transform="rotate(0,60,540)"/><rect x="48" y="552" width="24" height="24" transform="rotate(0,60,564)"/><rect x="48" y="576" width="24" height="24" transform="rotate(0,60,588)"/><rect x="48" y="600" width="24" height="24" transform="rotate(0,60,612)"/><rect x="48" y="624" width="24" height="24" transform="rotate(0,60,636)"/><rect x="48" y="648" width="24" height="24" transform="rotate(0,60,660)"/><rect x="48" y="696" width="24" height="24" transform="rotate(0,60,708)"/><rect x="48" y="768" width="24" height="24" transform="rotate(0,60,780)"/><rect x="48" y="792" width="24" height="24" transform="rotate(0,60,804)"/><rect x="48" y="840" width="24" height="24" transform="rotate(0,60,852)"/><rect x="72" y="216" width="24" height="24" transform="rotate(0,84,228)"/><rect x="72" y="288" width="24" height="24" transform="rotate(0,84,300)"/><rect x="72" y="360" width="24" height="24" transform="rotate(0,84,372)"/><rect x="72" y="504" width="24" height="24" transform="rotate(0,84,516)"/><rect x="72" y="576" width="24" height="24" transform="rotate(0,84,588)"/><rect x="72" y="672" width="24" height="24" transform="rotate(0,84,684)"/><rect x="72" y="744" width="24" height="24" transform="rotate(0,84,756)"/><rect x="72" y="840" width="24" height="24" transform="rotate(0,84,852)"/><rect x="72" y="864" width="24" height="24" transform="rotate(0,84,876)"/><rect x="96" y="216" width="24" height="24" transform="rotate(0,108,228)"/><rect x="96" y="240" width="24" height="24" transform="rotate(0,108,252)"/><rect x="96" y="360" width="24" height="24" transform="rotate(0,108,372)"/><rect x="96" y="408" width="24" height="24" transform="rotate(0,108,420)"/><rect x="96" y="432" width="24" height="24" transform="rotate(0,108,444)"/><rect x="96" y="456" width="24" height="24" transform="rotate(0,108,468)"/><rect x="96" y="480" width="24" height="24" transform="rotate(0,108,492)"/><rect x="96" y="504" width="24" height="24" transform="rotate(0,108,516)"/><rect x="96" y="528" width="24" height="24" transform="rotate(0,108,540)"/><rect x="96" y="552" width="24" height="24" transform="rotate(0,108,564)"/><rect x="96" y="576" width="24" height="24" transform="rotate(0,108,588)"/><rect x="96" y="600" width="24" height="24" transform="rotate(0,108,612)"/><rect x="96" y="648" width="24" height="24" transform="rotate(0,108,660)"/><rect x="96" y="672" width="24" height="24" transform="rotate(0,108,684)"/><rect x="96" y="696" width="24" height="24" transform="rotate(0,108,708)"/><rect x="96" y="720" width="24" height="24" transform="rotate(0,108,732)"/><rect x="96" y="768" width="24" height="24" transform="rotate(0,108,780)"/><rect x="96" y="792" width="24" height="24" transform="rotate(0,108,804)"/><rect x="96" y="816" width="24" height="24" transform="rotate(0,108,828)"/><rect x="96" y="840" width="24" height="24" transform="rotate(0,108,852)"/><rect x="96" y="864" width="24" height="24" transform="rotate(0,108,876)"/><rect x="120" y="192" width="24" height="24" transform="rotate(0,132,204)"/><rect x="120" y="216" width="24" height="24" transform="rotate(0,132,228)"/><rect x="120" y="240" width="24" height="24" transform="rotate(0,132,252)"/><rect x="120" y="264" width="24" height="24" transform="rotate(0,132,276)"/><rect x="120" y="312" width="24" height="24" transform="rotate(0,132,324)"/><rect x="120" y="336" width="24" height="24" transform="rotate(0,132,348)"/><rect x="120" y="384" width="24" height="24" transform="rotate(0,132,396)"/><rect x="120" y="480" width="24" height="24" transform="rotate(0,132,492)"/><rect x="120" y="576" width="24" height="24" transform="rotate(0,132,588)"/><rect x="120" y="672" width="24" height="24" transform="rotate(0,132,684)"/><rect x="120" y="696" width="24" height="24" transform="rotate(0,132,708)"/><rect x="120" y="720" width="24" height="24" transform="rotate(0,132,732)"/><rect x="144" y="192" width="24" height="24" transform="rotate(0,156,204)"/><rect x="144" y="240" width="24" height="24" transform="rotate(0,156,252)"/><rect x="144" y="288" width="24" height="24" transform="rotate(0,156,300)"/><rect x="144" y="336" width="24" height="24" transform="rotate(0,156,348)"/><rect x="144" y="384" width="24" height="24" transform="rotate(0,156,396)"/><rect x="144" y="432" width="24" height="24" transform="rotate(0,156,444)"/><rect x="144" y="480" width="24" height="24" transform="rotate(0,156,492)"/><rect x="144" y="528" width="24" height="24" transform="rotate(0,156,540)"/><rect x="144" y="576" width="24" height="24" transform="rotate(0,156,588)"/><rect x="144" y="624" width="24" height="24" transform="rotate(0,156,636)"/><rect x="144" y="672" width="24" height="24" transform="rotate(0,156,684)"/><rect x="144" y="720" width="24" height="24" transform="rotate(0,156,732)"/><rect x="144" y="768" width="24" height="24" transform="rotate(0,156,780)"/><rect x="144" y="816" width="24" height="24" transform="rotate(0,156,828)"/><rect x="144" y="864" width="24" height="24" transform="rotate(0,156,876)"/><rect x="168" y="192" width="24" height="24" transform="rotate(0,180,204)"/><rect x="168" y="216" width="24" height="24" transform="rotate(0,180,228)"/><rect x="168" y="240" width="24" height="24" transform="rotate(0,180,252)"/><rect x="168" y="312" width="24" height="24" transform="rotate(0,180,324)"/><rect x="168" y="336" width="24" height="24" transform="rotate(0,180,348)"/><rect x="168" y="480" width="24" height="24" transform="rotate(0,180,492)"/><rect x="168" y="576" width="24" height="24" transform="rotate(0,180,588)"/><rect x="168" y="624" width="24" height="24" transform="rotate(0,180,636)"/><rect x="168" y="648" width="24" height="24" transform="rotate(0,180,660)"/><rect x="168" y="720" width="24" height="24" transform="rotate(0,180,732)"/><rect x="168" y="768" width="24" height="24" transform="rotate(0,180,780)"/><rect x="168" y="840" width="24" height="24" transform="rotate(0,180,852)"/><rect x="168" y="864" width="24" height="24" transform="rotate(0,180,876)"/><rect x="192" y="96" width="24" height="24" transform="rotate(0,204,108)"/><rect x="192" y="120" width="24" height="24" transform="rotate(0,204,132)"/><rect x="192" y="144" width="24" height="24" transform="rotate(0,204,156)"/><rect x="192" y="168" width="24" height="24" transform="rotate(0,204,180)"/><rect x="192" y="216" width="24" height="24" transform="rotate(0,204,228)"/><rect x="192" y="264" width="24" height="24" transform="rotate(0,204,276)"/><rect x="192" y="336" width="24" height="24" transform="rotate(0,204,348)"/><rect x="192" y="360" width="24" height="24" transform="rotate(0,204,372)"/><rect x="192" y="408" width="24" height="24" transform="rotate(0,204,420)"/><rect x="192" y="456" width="24" height="24" transform="rotate(0,204,468)"/><rect x="192" y="480" width="24" height="24" transform="rotate(0,204,492)"/><rect x="192" y="504" width="24" height="24" transform="rotate(0,204,516)"/><rect x="192" y="528" width="24" height="24" transform="rotate(0,204,540)"/><rect x="192" y="552" width="24" height="24" transform="rotate(0,204,564)"/><rect x="192" y="576" width="24" height="24" transform="rotate(0,204,588)"/><rect x="192" y="600" width="24" height="24" transform="rotate(0,204,612)"/><rect x="192" y="672" width="24" height="24" transform="rotate(0,204,684)"/><rect x="192" y="696" width="24" height="24" transform="rotate(0,204,708)"/><rect x="192" y="768" width="24" height="24" transform="rotate(0,204,780)"/><rect x="192" y="792" width="24" height="24" transform="rotate(0,204,804)"/><rect x="192" y="816" width="24" height="24" transform="rotate(0,204,828)"/><rect x="192" y="912" width="24" height="24" transform="rotate(0,204,924)"/><rect x="192" y="936" width="24" height="24" transform="rotate(0,204,948)"/><rect x="192" y="1032" width="24" height="24" transform="rotate(0,204,1044)"/><rect x="216" y="0" width="24" height="24" transform="rotate(0,228,12)"/><rect x="216" y="24" width="24" height="24" transform="rotate(0,228,36)"/><rect x="216" y="72" width="24" height="24" transform="rotate(0,228,84)"/><rect x="216" y="96" width="24" height="24" transform="rotate(0,228,108)"/><rect x="216" y="120" width="24" height="24" transform="rotate(0,228,132)"/><rect x="216" y="168" width="24" height="24" transform="rotate(0,228,180)"/><rect x="216" y="216" width="24" height="24" transform="rotate(0,228,228)"/><rect x="216" y="264" width="24" height="24" transform="rotate(0,228,276)"/><rect x="216" y="288" width="24" height="24" transform="rotate(0,228,300)"/><rect x="216" y="336" width="24" height="24" transform="rotate(0,228,348)"/><rect x="216" y="384" width="24" height="24" transform="rotate(0,228,396)"/><rect x="216" y="408" width="24" height="24" transform="rotate(0,228,420)"/><rect x="216" y="432" width="24" height="24" transform="rotate(0,228,444)"/><rect x="216" y="456" width="24" height="24" transform="rotate(0,228,468)"/><rect x="216" y="504" width="24" height="24" transform="rotate(0,228,516)"/><rect x="216" y="648" width="24" height="24" transform="rotate(0,228,660)"/><rect x="216" y="696" width="24" height="24" transform="rotate(0,228,708)"/><rect x="216" y="720" width="24" height="24" transform="rotate(0,228,732)"/><rect x="216" y="768" width="24" height="24" transform="rotate(0,228,780)"/><rect x="216" y="840" width="24" height="24" transform="rotate(0,228,852)"/><rect x="216" y="864" width="24" height="24" transform="rotate(0,228,876)"/><rect x="216" y="912" width="24" height="24" transform="rotate(0,228,924)"/><rect x="216" y="984" width="24" height="24" transform="rotate(0,228,996)"/><rect x="216" y="1032" width="24" height="24" transform="rotate(0,228,1044)"/><rect x="240" y="0" width="24" height="24" transform="rotate(0,252,12)"/><rect x="240" y="24" width="24" height="24" transform="rotate(0,252,36)"/><rect x="240" y="72" width="24" height="24" transform="rotate(0,252,84)"/><rect x="240" y="144" width="24" height="24" transform="rotate(0,252,156)"/><rect x="240" y="216" width="24" height="24" transform="rotate(0,252,228)"/><rect x="240" y="240" width="24" height="24" transform="rotate(0,252,252)"/><rect x="240" y="288" width="24" height="24" transform="rotate(0,252,300)"/><rect x="240" y="312" width="24" height="24" transform="rotate(0,252,324)"/><rect x="240" y="336" width="24" height="24" transform="rotate(0,252,348)"/><rect x="240" y="360" width="24" height="24" transform="rotate(0,252,372)"/><rect x="240" y="384" width="24" height="24" transform="rotate(0,252,396)"/><rect x="240" y="432" width="24" height="24" transform="rotate(0,252,444)"/><rect x="240" y="456" width="24" height="24" transform="rotate(0,252,468)"/><rect x="240" y="696" width="24" height="24" transform="rotate(0,252,708)"/><rect x="240" y="720" width="24" height="24" transform="rotate(0,252,732)"/><rect x="240" y="792" width="24" height="24" transform="rotate(0,252,804)"/><rect x="240" y="864" width="24" height="24" transform="rotate(0,252,876)"/><rect x="240" y="912" width="24" height="24" transform="rotate(0,252,924)"/><rect x="240" y="960" width="24" height="24" transform="rotate(0,252,972)"/><rect x="240" y="1008" width="24" height="24" transform="rotate(0,252,1020)"/><rect x="240" y="1032" width="24" height="24" transform="rotate(0,252,1044)"/><rect x="264" y="96" width="24" height="24" transform="rotate(0,276,108)"/><rect x="264" y="120" width="24" height="24" transform="rotate(0,276,132)"/><rect x="264" y="168" width="24" height="24" transform="rotate(0,276,180)"/><rect x="264" y="192" width="24" height="24" transform="rotate(0,276,204)"/><rect x="264" y="216" width="24" height="24" transform="rotate(0,276,228)"/><rect x="264" y="240" width="24" height="24" transform="rotate(0,276,252)"/><rect x="264" y="288" width="24" height="24" transform="rotate(0,276,300)"/><rect x="264" y="312" width="24" height="24" transform="rotate(0,276,324)"/><rect x="264" y="336" width="24" height="24" transform="rotate(0,276,348)"/><rect x="264" y="360" width="24" height="24" transform="rotate(0,276,372)"/><rect x="264" y="408" width="24" height="24" transform="rotate(0,276,420)"/><rect x="264" y="432" width="24" height="24" transform="rotate(0,276,444)"/><rect x="264" y="456" width="24" height="24" transform="rotate(0,276,468)"/><rect x="264" y="552" width="24" height="24" transform="rotate(0,276,564)"/><rect x="264" y="576" width="24" height="24" transform="rotate(0,276,588)"/><rect x="264" y="672" width="24" height="24" transform="rotate(0,276,684)"/><rect x="264" y="696" width="24" height="24" transform="rotate(0,276,708)"/><rect x="264" y="720" width="24" height="24" transform="rotate(0,276,732)"/><rect x="264" y="768" width="24" height="24" transform="rotate(0,276,780)"/><rect x="264" y="816" width="24" height="24" transform="rotate(0,276,828)"/><rect x="264" y="864" width="24" height="24" transform="rotate(0,276,876)"/><rect x="264" y="936" width="24" height="24" transform="rotate(0,276,948)"/><rect x="264" y="1032" width="24" height="24" transform="rotate(0,276,1044)"/><rect x="288" y="0" width="24" height="24" transform="rotate(0,300,12)"/><rect x="288" y="48" width="24" height="24" transform="rotate(0,300,60)"/><rect x="288" y="96" width="24" height="24" transform="rotate(0,300,108)"/><rect x="288" y="144" width="24" height="24" transform="rotate(0,300,156)"/><rect x="288" y="168" width="24" height="24" transform="rotate(0,300,180)"/><rect x="288" y="240" width="24" height="24" transform="rotate(0,300,252)"/><rect x="288" y="264" width="24" height="24" transform="rotate(0,300,276)"/><rect x="288" y="288" width="24" height="24" transform="rotate(0,300,300)"/><rect x="288" y="312" width="24" height="24" transform="rotate(0,300,324)"/><rect x="288" y="336" width="24" height="24" transform="rotate(0,300,348)"/><rect x="288" y="360" width="24" height="24" transform="rotate(0,300,372)"/><rect x="288" y="456" width="24" height="24" transform="rotate(0,300,468)"/><rect x="288" y="552" width="24" height="24" transform="rotate(0,300,564)"/><rect x="288" y="600" width="24" height="24" transform="rotate(0,300,612)"/><rect x="288" y="672" width="24" height="24" transform="rotate(0,300,684)"/><rect x="288" y="696" width="24" height="24" transform="rotate(0,300,708)"/><rect x="288" y="720" width="24" height="24" transform="rotate(0,300,732)"/><rect x="288" y="768" width="24" height="24" transform="rotate(0,300,780)"/><rect x="288" y="792" width="24" height="24" transform="rotate(0,300,804)"/><rect x="288" y="888" width="24" height="24" transform="rotate(0,300,900)"/><rect x="288" y="912" width="24" height="24" transform="rotate(0,300,924)"/><rect x="288" y="936" width="24" height="24" transform="rotate(0,300,948)"/><rect x="288" y="984" width="24" height="24" transform="rotate(0,300,996)"/><rect x="288" y="1032" width="24" height="24" transform="rotate(0,300,1044)"/><rect x="312" y="0" width="24" height="24" transform="rotate(0,324,12)"/><rect x="312" y="240" width="24" height="24" transform="rotate(0,324,252)"/><rect x="312" y="264" width="24" height="24" transform="rotate(0,324,276)"/><rect x="312" y="312" width="24" height="24" transform="rotate(0,324,324)"/><rect x="312" y="408" width="24" height="24" transform="rotate(0,324,420)"/><rect x="312" y="456" width="24" height="24" transform="rotate(0,324,468)"/><rect x="312" y="528" width="24" height="24" transform="rotate(0,324,540)"/><rect x="312" y="648" width="24" height="24" transform="rotate(0,324,660)"/><rect x="312" y="672" width="24" height="24" transform="rotate(0,324,684)"/><rect x="312" y="696" width="24" height="24" transform="rotate(0,324,708)"/><rect x="312" y="720" width="24" height="24" transform="rotate(0,324,732)"/><rect x="312" y="792" width="24" height="24" transform="rotate(0,324,804)"/><rect x="312" y="840" width="24" height="24" transform="rotate(0,324,852)"/><rect x="312" y="864" width="24" height="24" transform="rotate(0,324,876)"/><rect x="312" y="912" width="24" height="24" transform="rotate(0,324,924)"/><rect x="312" y="936" width="24" height="24" transform="rotate(0,324,948)"/><rect x="312" y="960" width="24" height="24" transform="rotate(0,324,972)"/><rect x="312" y="1032" width="24" height="24" transform="rotate(0,324,1044)"/><rect x="336" y="0" width="24" height="24" transform="rotate(0,348,12)"/><rect x="336" y="24" width="24" height="24" transform="rotate(0,348,36)"/><rect x="336" y="72" width="24" height="24" transform="rotate(0,348,84)"/><rect x="336" y="96" width="24" height="24" transform="rotate(0,348,108)"/><rect x="336" y="144" width="24" height="24" transform="rotate(0,348,156)"/><rect x="336" y="192" width="24" height="24" transform="rotate(0,348,204)"/><rect x="336" y="216" width="24" height="24" transform="rotate(0,348,228)"/><rect x="336" y="264" width="24" height="24" transform="rotate(0,348,276)"/><rect x="336" y="288" width="24" height="24" transform="rotate(0,348,300)"/><rect x="336" y="312" width="24" height="24" transform="rotate(0,348,324)"/><rect x="336" y="408" width="24" height="24" transform="rotate(0,348,420)"/><rect x="336" y="432" width="24" height="24" transform="rotate(0,348,444)"/><rect x="336" y="504" width="24" height="24" transform="rotate(0,348,516)"/><rect x="336" y="528" width="24" height="24" transform="rotate(0,348,540)"/><rect x="336" y="552" width="24" height="24" transform="rotate(0,348,564)"/><rect x="336" y="576" width="24" height="24" transform="rotate(0,348,588)"/><rect x="336" y="624" width="24" height="24" transform="rotate(0,348,636)"/><rect x="336" y="648" width="24" height="24" transform="rotate(0,348,660)"/><rect x="336" y="696" width="24" height="24" transform="rotate(0,348,708)"/><rect x="336" y="720" width="24" height="24" transform="rotate(0,348,732)"/><rect x="336" y="744" width="24" height="24" transform="rotate(0,348,756)"/><rect x="336" y="768" width="24" height="24" transform="rotate(0,348,780)"/><rect x="336" y="792" width="24" height="24" transform="rotate(0,348,804)"/><rect x="336" y="816" width="24" height="24" transform="rotate(0,348,828)"/><rect x="336" y="864" width="24" height="24" transform="rotate(0,348,876)"/><rect x="336" y="888" width="24" height="24" transform="rotate(0,348,900)"/><rect x="336" y="912" width="24" height="24" transform="rotate(0,348,924)"/><rect x="336" y="984" width="24" height="24" transform="rotate(0,348,996)"/><rect x="360" y="0" width="24" height="24" transform="rotate(0,372,12)"/><rect x="360" y="24" width="24" height="24" transform="rotate(0,372,36)"/><rect x="360" y="48" width="24" height="24" transform="rotate(0,372,60)"/><rect x="360" y="72" width="24" height="24" transform="rotate(0,372,84)"/><rect x="360" y="96" width="24" height="24" transform="rotate(0,372,108)"/><rect x="360" y="120" width="24" height="24" transform="rotate(0,372,132)"/><rect x="360" y="216" width="24" height="24" transform="rotate(0,372,228)"/><rect x="360" y="264" width="24" height="24" transform="rotate(0,372,276)"/><rect x="360" y="288" width="24" height="24" transform="rotate(0,372,300)"/><rect x="360" y="336" width="24" height="24" transform="rotate(0,372,348)"/><rect x="360" y="384" width="24" height="24" transform="rotate(0,372,396)"/><rect x="360" y="432" width="24" height="24" transform="rotate(0,372,444)"/><rect x="360" y="456" width="24" height="24" transform="rotate(0,372,468)"/><rect x="360" y="480" width="24" height="24" transform="rotate(0,372,492)"/><rect x="360" y="552" width="24" height="24" transform="rotate(0,372,564)"/><rect x="360" y="600" width="24" height="24" transform="rotate(0,372,612)"/><rect x="360" y="624" width="24" height="24" transform="rotate(0,372,636)"/><rect x="360" y="648" width="24" height="24" transform="rotate(0,372,660)"/><rect x="360" y="864" width="24" height="24" transform="rotate(0,372,876)"/><rect x="360" y="888" width="24" height="24" transform="rotate(0,372,900)"/><rect x="360" y="912" width="24" height="24" transform="rotate(0,372,924)"/><rect x="360" y="1032" width="24" height="24" transform="rotate(0,372,1044)"/><rect x="360" y="1056" width="24" height="24" transform="rotate(0,372,1068)"/><rect x="384" y="0" width="24" height="24" transform="rotate(0,396,12)"/><rect x="384" y="72" width="24" height="24" transform="rotate(0,396,84)"/><rect x="384" y="96" width="24" height="24" transform="rotate(0,396,108)"/><rect x="384" y="120" width="24" height="24" transform="rotate(0,396,132)"/><rect x="384" y="144" width="24" height="24" transform="rotate(0,396,156)"/><rect x="384" y="192" width="24" height="24" transform="rotate(0,396,204)"/><rect x="384" y="240" width="24" height="24" transform="rotate(0,396,252)"/><rect x="384" y="264" width="24" height="24" transform="rotate(0,396,276)"/><rect x="384" y="288" width="24" height="24" transform="rotate(0,396,300)"/><rect x="384" y="432" width="24" height="24" transform="rotate(0,396,444)"/><rect x="384" y="504" width="24" height="24" transform="rotate(0,396,516)"/><rect x="384" y="528" width="24" height="24" transform="rotate(0,396,540)"/><rect x="384" y="552" width="24" height="24" transform="rotate(0,396,564)"/><rect x="384" y="576" width="24" height="24" transform="rotate(0,396,588)"/><rect x="384" y="624" width="24" height="24" transform="rotate(0,396,636)"/><rect x="384" y="672" width="24" height="24" transform="rotate(0,396,684)"/><rect x="384" y="720" width="24" height="24" transform="rotate(0,396,732)"/><rect x="384" y="768" width="24" height="24" transform="rotate(0,396,780)"/><rect x="384" y="816" width="24" height="24" transform="rotate(0,396,828)"/><rect x="384" y="840" width="24" height="24" transform="rotate(0,396,852)"/><rect x="384" y="864" width="24" height="24" transform="rotate(0,396,876)"/><rect x="384" y="936" width="24" height="24" transform="rotate(0,396,948)"/><rect x="384" y="984" width="24" height="24" transform="rotate(0,396,996)"/><rect x="384" y="1032" width="24" height="24" transform="rotate(0,396,1044)"/><rect x="384" y="1056" width="24" height="24" transform="rotate(0,396,1068)"/><rect x="408" y="96" width="24" height="24" transform="rotate(0,420,108)"/><rect x="408" y="120" width="24" height="24" transform="rotate(0,420,132)"/><rect x="408" y="240" width="24" height="24" transform="rotate(0,420,252)"/><rect x="408" y="384" width="24" height="24" transform="rotate(0,420,396)"/><rect x="408" y="480" width="24" height="24" transform="rotate(0,420,492)"/><rect x="408" y="528" width="24" height="24" transform="rotate(0,420,540)"/><rect x="408" y="552" width="24" height="24" transform="rotate(0,420,564)"/><rect x="408" y="576" width="24" height="24" transform="rotate(0,420,588)"/><rect x="408" y="600" width="24" height="24" transform="rotate(0,420,612)"/><rect x="408" y="624" width="24" height="24" transform="rotate(0,420,636)"/><rect x="408" y="672" width="24" height="24" transform="rotate(0,420,684)"/><rect x="408" y="720" width="24" height="24" transform="rotate(0,420,732)"/><rect x="408" y="768" width="24" height="24" transform="rotate(0,420,780)"/><rect x="408" y="840" width="24" height="24" transform="rotate(0,420,852)"/><rect x="408" y="864" width="24" height="24" transform="rotate(0,420,876)"/><rect x="408" y="912" width="24" height="24" transform="rotate(0,420,924)"/><rect x="408" y="936" width="24" height="24" transform="rotate(0,420,948)"/><rect x="408" y="1008" width="24" height="24" transform="rotate(0,420,1020)"/><rect x="408" y="1032" width="24" height="24" transform="rotate(0,420,1044)"/><rect x="432" y="0" width="24" height="24" transform="rotate(0,444,12)"/><rect x="432" y="48" width="24" height="24" transform="rotate(0,444,60)"/><rect x="432" y="72" width="24" height="24" transform="rotate(0,444,84)"/><rect x="432" y="96" width="24" height="24" transform="rotate(0,444,108)"/><rect x="432" y="120" width="24" height="24" transform="rotate(0,444,132)"/><rect x="432" y="144" width="24" height="24" transform="rotate(0,444,156)"/><rect x="432" y="168" width="24" height="24" transform="rotate(0,444,180)"/><rect x="432" y="192" width="24" height="24" transform="rotate(0,444,204)"/><rect x="432" y="240" width="24" height="24" transform="rotate(0,444,252)"/><rect x="432" y="288" width="24" height="24" transform="rotate(0,444,300)"/><rect x="432" y="336" width="24" height="24" transform="rotate(0,444,348)"/><rect x="432" y="360" width="24" height="24" transform="rotate(0,444,372)"/><rect x="432" y="456" width="24" height="24" transform="rotate(0,444,468)"/><rect x="432" y="528" width="24" height="24" transform="rotate(0,444,540)"/><rect x="432" y="552" width="24" height="24" transform="rotate(0,444,564)"/><rect x="432" y="624" width="24" height="24" transform="rotate(0,444,636)"/><rect x="432" y="696" width="24" height="24" transform="rotate(0,444,708)"/><rect x="432" y="744" width="24" height="24" transform="rotate(0,444,756)"/><rect x="432" y="768" width="24" height="24" transform="rotate(0,444,780)"/><rect x="432" y="792" width="24" height="24" transform="rotate(0,444,804)"/><rect x="432" y="864" width="24" height="24" transform="rotate(0,444,876)"/><rect x="432" y="912" width="24" height="24" transform="rotate(0,444,924)"/><rect x="432" y="936" width="24" height="24" transform="rotate(0,444,948)"/><rect x="432" y="984" width="24" height="24" transform="rotate(0,444,996)"/><rect x="432" y="1008" width="24" height="24" transform="rotate(0,444,1020)"/><rect x="432" y="1032" width="24" height="24" transform="rotate(0,444,1044)"/><rect x="456" y="96" width="24" height="24" transform="rotate(0,468,108)"/><rect x="456" y="168" width="24" height="24" transform="rotate(0,468,180)"/><rect x="456" y="288" width="24" height="24" transform="rotate(0,468,300)"/><rect x="456" y="312" width="24" height="24" transform="rotate(0,468,324)"/><rect x="456" y="336" width="24" height="24" transform="rotate(0,468,348)"/><rect x="456" y="360" width="24" height="24" transform="rotate(0,468,372)"/><rect x="456" y="408" width="24" height="24" transform="rotate(0,468,420)"/><rect x="456" y="432" width="24" height="24" transform="rotate(0,468,444)"/><rect x="456" y="480" width="24" height="24" transform="rotate(0,468,492)"/><rect x="456" y="528" width="24" height="24" transform="rotate(0,468,540)"/><rect x="456" y="576" width="24" height="24" transform="rotate(0,468,588)"/><rect x="456" y="600" width="24" height="24" transform="rotate(0,468,612)"/><rect x="456" y="648" width="24" height="24" transform="rotate(0,468,660)"/><rect x="456" y="720" width="24" height="24" transform="rotate(0,468,732)"/><rect x="456" y="744" width="24" height="24" transform="rotate(0,468,756)"/><rect x="456" y="768" width="24" height="24" transform="rotate(0,468,780)"/><rect x="456" y="792" width="24" height="24" transform="rotate(0,468,804)"/><rect x="456" y="816" width="24" height="24" transform="rotate(0,468,828)"/><rect x="456" y="864" width="24" height="24" transform="rotate(0,468,876)"/><rect x="456" y="888" width="24" height="24" transform="rotate(0,468,900)"/><rect x="456" y="936" width="24" height="24" transform="rotate(0,468,948)"/><rect x="456" y="984" width="24" height="24" transform="rotate(0,468,996)"/><rect x="456" y="1032" width="24" height="24" transform="rotate(0,468,1044)"/><rect x="480" y="48" width="24" height="24" transform="rotate(0,492,60)"/><rect x="480" y="72" width="24" height="24" transform="rotate(0,492,84)"/><rect x="480" y="96" width="24" height="24" transform="rotate(0,492,108)"/><rect x="480" y="120" width="24" height="24" transform="rotate(0,492,132)"/><rect x="480" y="144" width="24" height="24" transform="rotate(0,492,156)"/><rect x="480" y="168" width="24" height="24" transform="rotate(0,492,180)"/><rect x="480" y="192" width="24" height="24" transform="rotate(0,492,204)"/><rect x="480" y="216" width="24" height="24" transform="rotate(0,492,228)"/><rect x="480" y="264" width="24" height="24" transform="rotate(0,492,276)"/><rect x="480" y="288" width="24" height="24" transform="rotate(0,492,300)"/><rect x="480" y="312" width="24" height="24" transform="rotate(0,492,324)"/><rect x="480" y="336" width="24" height="24" transform="rotate(0,492,348)"/><rect x="480" y="360" width="24" height="24" transform="rotate(0,492,372)"/><rect x="480" y="432" width="24" height="24" transform="rotate(0,492,444)"/><rect x="480" y="480" width="24" height="24" transform="rotate(0,492,492)"/><rect x="480" y="504" width="24" height="24" transform="rotate(0,492,516)"/><rect x="480" y="528" width="24" height="24" transform="rotate(0,492,540)"/><rect x="480" y="552" width="24" height="24" transform="rotate(0,492,564)"/><rect x="480" y="576" width="24" height="24" transform="rotate(0,492,588)"/><rect x="480" y="600" width="24" height="24" transform="rotate(0,492,612)"/><rect x="480" y="624" width="24" height="24" transform="rotate(0,492,636)"/><rect x="480" y="648" width="24" height="24" transform="rotate(0,492,660)"/><rect x="480" y="768" width="24" height="24" transform="rotate(0,492,780)"/><rect x="480" y="816" width="24" height="24" transform="rotate(0,492,828)"/><rect x="480" y="864" width="24" height="24" transform="rotate(0,492,876)"/><rect x="480" y="888" width="24" height="24" transform="rotate(0,492,900)"/><rect x="480" y="912" width="24" height="24" transform="rotate(0,492,924)"/><rect x="480" y="936" width="24" height="24" transform="rotate(0,492,948)"/><rect x="480" y="960" width="24" height="24" transform="rotate(0,492,972)"/><rect x="480" y="1056" width="24" height="24" transform="rotate(0,492,1068)"/><rect x="504" y="48" width="24" height="24" transform="rotate(0,516,60)"/><rect x="504" y="72" width="24" height="24" transform="rotate(0,516,84)"/><rect x="504" y="96" width="24" height="24" transform="rotate(0,516,108)"/><rect x="504" y="192" width="24" height="24" transform="rotate(0,516,204)"/><rect x="504" y="240" width="24" height="24" transform="rotate(0,516,252)"/><rect x="504" y="384" width="24" height="24" transform="rotate(0,516,396)"/><rect x="504" y="408" width="24" height="24" transform="rotate(0,516,420)"/><rect x="504" y="432" width="24" height="24" transform="rotate(0,516,444)"/><rect x="504" y="456" width="24" height="24" transform="rotate(0,516,468)"/><rect x="504" y="480" width="24" height="24" transform="rotate(0,516,492)"/><rect x="504" y="576" width="24" height="24" transform="rotate(0,516,588)"/><rect x="504" y="624" width="24" height="24" transform="rotate(0,516,636)"/><rect x="504" y="696" width="24" height="24" transform="rotate(0,516,708)"/><rect x="504" y="768" width="24" height="24" transform="rotate(0,516,780)"/><rect x="504" y="840" width="24" height="24" transform="rotate(0,516,852)"/><rect x="504" y="864" width="24" height="24" transform="rotate(0,516,876)"/><rect x="504" y="960" width="24" height="24" transform="rotate(0,516,972)"/><rect x="504" y="984" width="24" height="24" transform="rotate(0,516,996)"/><rect x="504" y="1032" width="24" height="24" transform="rotate(0,516,1044)"/><rect x="528" y="96" width="24" height="24" transform="rotate(0,540,108)"/><rect x="528" y="144" width="24" height="24" transform="rotate(0,540,156)"/><rect x="528" y="192" width="24" height="24" transform="rotate(0,540,204)"/><rect x="528" y="216" width="24" height="24" transform="rotate(0,540,228)"/><rect x="528" y="240" width="24" height="24" transform="rotate(0,540,252)"/><rect x="528" y="264" width="24" height="24" transform="rotate(0,540,276)"/><rect x="528" y="336" width="24" height="24" transform="rotate(0,540,348)"/><rect x="528" y="432" width="24" height="24" transform="rotate(0,540,444)"/><rect x="528" y="456" width="24" height="24" transform="rotate(0,540,468)"/><rect x="528" y="480" width="24" height="24" transform="rotate(0,540,492)"/><rect x="528" y="528" width="24" height="24" transform="rotate(0,540,540)"/><rect x="528" y="576" width="24" height="24" transform="rotate(0,540,588)"/><rect x="528" y="648" width="24" height="24" transform="rotate(0,540,660)"/><rect x="528" y="672" width="24" height="24" transform="rotate(0,540,684)"/><rect x="528" y="696" width="24" height="24" transform="rotate(0,540,708)"/><rect x="528" y="768" width="24" height="24" transform="rotate(0,540,780)"/><rect x="528" y="792" width="24" height="24" transform="rotate(0,540,804)"/><rect x="528" y="840" width="24" height="24" transform="rotate(0,540,852)"/><rect x="528" y="864" width="24" height="24" transform="rotate(0,540,876)"/><rect x="528" y="912" width="24" height="24" transform="rotate(0,540,924)"/><rect x="528" y="960" width="24" height="24" transform="rotate(0,540,972)"/><rect x="528" y="1008" width="24" height="24" transform="rotate(0,540,1020)"/><rect x="528" y="1032" width="24" height="24" transform="rotate(0,540,1044)"/><rect x="552" y="24" width="24" height="24" transform="rotate(0,564,36)"/><rect x="552" y="48" width="24" height="24" transform="rotate(0,564,60)"/><rect x="552" y="72" width="24" height="24" transform="rotate(0,564,84)"/><rect x="552" y="96" width="24" height="24" transform="rotate(0,564,108)"/><rect x="552" y="192" width="24" height="24" transform="rotate(0,564,204)"/><rect x="552" y="216" width="24" height="24" transform="rotate(0,564,228)"/><rect x="552" y="264" width="24" height="24" transform="rotate(0,564,276)"/><rect x="552" y="288" width="24" height="24" transform="rotate(0,564,300)"/><rect x="552" y="312" width="24" height="24" transform="rotate(0,564,324)"/><rect x="552" y="360" width="24" height="24" transform="rotate(0,564,372)"/><rect x="552" y="384" width="24" height="24" transform="rotate(0,564,396)"/><rect x="552" y="408" width="24" height="24" transform="rotate(0,564,420)"/><rect x="552" y="456" width="24" height="24" transform="rotate(0,564,468)"/><rect x="552" y="480" width="24" height="24" transform="rotate(0,564,492)"/><rect x="552" y="576" width="24" height="24" transform="rotate(0,564,588)"/><rect x="552" y="600" width="24" height="24" transform="rotate(0,564,612)"/><rect x="552" y="648" width="24" height="24" transform="rotate(0,564,660)"/><rect x="552" y="672" width="24" height="24" transform="rotate(0,564,684)"/><rect x="552" y="768" width="24" height="24" transform="rotate(0,564,780)"/><rect x="552" y="792" width="24" height="24" transform="rotate(0,564,804)"/><rect x="552" y="816" width="24" height="24" transform="rotate(0,564,828)"/><rect x="552" y="840" width="24" height="24" transform="rotate(0,564,852)"/><rect x="552" y="864" width="24" height="24" transform="rotate(0,564,876)"/><rect x="552" y="960" width="24" height="24" transform="rotate(0,564,972)"/><rect x="552" y="1032" width="24" height="24" transform="rotate(0,564,1044)"/><rect x="552" y="1056" width="24" height="24" transform="rotate(0,564,1068)"/><rect x="576" y="24" width="24" height="24" transform="rotate(0,588,36)"/><rect x="576" y="48" width="24" height="24" transform="rotate(0,588,60)"/><rect x="576" y="96" width="24" height="24" transform="rotate(0,588,108)"/><rect x="576" y="120" width="24" height="24" transform="rotate(0,588,132)"/><rect x="576" y="144" width="24" height="24" transform="rotate(0,588,156)"/><rect x="576" y="168" width="24" height="24" transform="rotate(0,588,180)"/><rect x="576" y="192" width="24" height="24" transform="rotate(0,588,204)"/><rect x="576" y="264" width="24" height="24" transform="rotate(0,588,276)"/><rect x="576" y="336" width="24" height="24" transform="rotate(0,588,348)"/><rect x="576" y="360" width="24" height="24" transform="rotate(0,588,372)"/><rect x="576" y="432" width="24" height="24" transform="rotate(0,588,444)"/><rect x="576" y="480" width="24" height="24" transform="rotate(0,588,492)"/><rect x="576" y="504" width="24" height="24" transform="rotate(0,588,516)"/><rect x="576" y="528" width="24" height="24" transform="rotate(0,588,540)"/><rect x="576" y="552" width="24" height="24" transform="rotate(0,588,564)"/><rect x="576" y="576" width="24" height="24" transform="rotate(0,588,588)"/><rect x="576" y="600" width="24" height="24" transform="rotate(0,588,612)"/><rect x="576" y="624" width="24" height="24" transform="rotate(0,588,636)"/><rect x="576" y="648" width="24" height="24" transform="rotate(0,588,660)"/><rect x="576" y="672" width="24" height="24" transform="rotate(0,588,684)"/><rect x="576" y="696" width="24" height="24" transform="rotate(0,588,708)"/><rect x="576" y="720" width="24" height="24" transform="rotate(0,588,732)"/><rect x="576" y="768" width="24" height="24" transform="rotate(0,588,780)"/><rect x="576" y="792" width="24" height="24" transform="rotate(0,588,804)"/><rect x="576" y="864" width="24" height="24" transform="rotate(0,588,876)"/><rect x="576" y="888" width="24" height="24" transform="rotate(0,588,900)"/><rect x="576" y="912" width="24" height="24" transform="rotate(0,588,924)"/><rect x="576" y="936" width="24" height="24" transform="rotate(0,588,948)"/><rect x="576" y="960" width="24" height="24" transform="rotate(0,588,972)"/><rect x="576" y="984" width="24" height="24" transform="rotate(0,588,996)"/><rect x="600" y="0" width="24" height="24" transform="rotate(0,612,12)"/><rect x="600" y="24" width="24" height="24" transform="rotate(0,612,36)"/><rect x="600" y="336" width="24" height="24" transform="rotate(0,612,348)"/><rect x="600" y="360" width="24" height="24" transform="rotate(0,612,372)"/><rect x="600" y="432" width="24" height="24" transform="rotate(0,612,444)"/><rect x="600" y="456" width="24" height="24" transform="rotate(0,612,468)"/><rect x="600" y="648" width="24" height="24" transform="rotate(0,612,660)"/><rect x="600" y="672" width="24" height="24" transform="rotate(0,612,684)"/><rect x="600" y="720" width="24" height="24" transform="rotate(0,612,732)"/><rect x="600" y="744" width="24" height="24" transform="rotate(0,612,756)"/><rect x="600" y="792" width="24" height="24" transform="rotate(0,612,804)"/><rect x="600" y="840" width="24" height="24" transform="rotate(0,612,852)"/><rect x="600" y="864" width="24" height="24" transform="rotate(0,612,876)"/><rect x="600" y="888" width="24" height="24" transform="rotate(0,612,900)"/><rect x="600" y="912" width="24" height="24" transform="rotate(0,612,924)"/><rect x="600" y="936" width="24" height="24" transform="rotate(0,612,948)"/><rect x="600" y="984" width="24" height="24" transform="rotate(0,612,996)"/><rect x="600" y="1032" width="24" height="24" transform="rotate(0,612,1044)"/><rect x="624" y="0" width="24" height="24" transform="rotate(0,636,12)"/><rect x="624" y="24" width="24" height="24" transform="rotate(0,636,36)"/><rect x="624" y="48" width="24" height="24" transform="rotate(0,636,60)"/><rect x="624" y="72" width="24" height="24" transform="rotate(0,636,84)"/><rect x="624" y="96" width="24" height="24" transform="rotate(0,636,108)"/><rect x="624" y="144" width="24" height="24" transform="rotate(0,636,156)"/><rect x="624" y="168" width="24" height="24" transform="rotate(0,636,180)"/><rect x="624" y="288" width="24" height="24" transform="rotate(0,636,300)"/><rect x="624" y="336" width="24" height="24" transform="rotate(0,636,348)"/><rect x="624" y="360" width="24" height="24" transform="rotate(0,636,372)"/><rect x="624" y="408" width="24" height="24" transform="rotate(0,636,420)"/><rect x="624" y="432" width="24" height="24" transform="rotate(0,636,444)"/><rect x="624" y="552" width="24" height="24" transform="rotate(0,636,564)"/><rect x="624" y="600" width="24" height="24" transform="rotate(0,636,612)"/><rect x="624" y="624" width="24" height="24" transform="rotate(0,636,636)"/><rect x="624" y="648" width="24" height="24" transform="rotate(0,636,660)"/><rect x="624" y="672" width="24" height="24" transform="rotate(0,636,684)"/><rect x="624" y="696" width="24" height="24" transform="rotate(0,636,708)"/><rect x="624" y="720" width="24" height="24" transform="rotate(0,636,732)"/><rect x="624" y="744" width="24" height="24" transform="rotate(0,636,756)"/><rect x="624" y="768" width="24" height="24" transform="rotate(0,636,780)"/><rect x="624" y="792" width="24" height="24" transform="rotate(0,636,804)"/><rect x="624" y="888" width="24" height="24" transform="rotate(0,636,900)"/><rect x="624" y="984" width="24" height="24" transform="rotate(0,636,996)"/><rect x="624" y="1008" width="24" height="24" transform="rotate(0,636,1020)"/><rect x="648" y="24" width="24" height="24" transform="rotate(0,660,36)"/><rect x="648" y="120" width="24" height="24" transform="rotate(0,660,132)"/><rect x="648" y="168" width="24" height="24" transform="rotate(0,660,180)"/><rect x="648" y="192" width="24" height="24" transform="rotate(0,660,204)"/><rect x="648" y="264" width="24" height="24" transform="rotate(0,660,276)"/><rect x="648" y="432" width="24" height="24" transform="rotate(0,660,444)"/><rect x="648" y="528" width="24" height="24" transform="rotate(0,660,540)"/><rect x="648" y="576" width="24" height="24" transform="rotate(0,660,588)"/><rect x="648" y="600" width="24" height="24" transform="rotate(0,660,612)"/><rect x="648" y="624" width="24" height="24" transform="rotate(0,660,636)"/><rect x="648" y="672" width="24" height="24" transform="rotate(0,660,684)"/><rect x="648" y="720" width="24" height="24" transform="rotate(0,660,732)"/><rect x="648" y="768" width="24" height="24" transform="rotate(0,660,780)"/><rect x="648" y="864" width="24" height="24" transform="rotate(0,660,876)"/><rect x="648" y="912" width="24" height="24" transform="rotate(0,660,924)"/><rect x="648" y="936" width="24" height="24" transform="rotate(0,660,948)"/><rect x="648" y="960" width="24" height="24" transform="rotate(0,660,972)"/><rect x="648" y="1056" width="24" height="24" transform="rotate(0,660,1068)"/><rect x="672" y="0" width="24" height="24" transform="rotate(0,684,12)"/><rect x="672" y="48" width="24" height="24" transform="rotate(0,684,60)"/><rect x="672" y="120" width="24" height="24" transform="rotate(0,684,132)"/><rect x="672" y="144" width="24" height="24" transform="rotate(0,684,156)"/><rect x="672" y="168" width="24" height="24" transform="rotate(0,684,180)"/><rect x="672" y="216" width="24" height="24" transform="rotate(0,684,228)"/><rect x="672" y="240" width="24" height="24" transform="rotate(0,684,252)"/><rect x="672" y="312" width="24" height="24" transform="rotate(0,684,324)"/><rect x="672" y="360" width="24" height="24" transform="rotate(0,684,372)"/><rect x="672" y="432" width="24" height="24" transform="rotate(0,684,444)"/><rect x="672" y="480" width="24" height="24" transform="rotate(0,684,492)"/><rect x="672" y="576" width="24" height="24" transform="rotate(0,684,588)"/><rect x="672" y="600" width="24" height="24" transform="rotate(0,684,612)"/><rect x="672" y="648" width="24" height="24" transform="rotate(0,684,660)"/><rect x="672" y="720" width="24" height="24" transform="rotate(0,684,732)"/><rect x="672" y="768" width="24" height="24" transform="rotate(0,684,780)"/><rect x="672" y="792" width="24" height="24" transform="rotate(0,684,804)"/><rect x="672" y="816" width="24" height="24" transform="rotate(0,684,828)"/><rect x="672" y="864" width="24" height="24" transform="rotate(0,684,876)"/><rect x="672" y="888" width="24" height="24" transform="rotate(0,684,900)"/><rect x="672" y="912" width="24" height="24" transform="rotate(0,684,924)"/><rect x="672" y="936" width="24" height="24" transform="rotate(0,684,948)"/><rect x="672" y="960" width="24" height="24" transform="rotate(0,684,972)"/><rect x="696" y="24" width="24" height="24" transform="rotate(0,708,36)"/><rect x="696" y="48" width="24" height="24" transform="rotate(0,708,60)"/><rect x="696" y="96" width="24" height="24" transform="rotate(0,708,108)"/><rect x="696" y="120" width="24" height="24" transform="rotate(0,708,132)"/><rect x="696" y="168" width="24" height="24" transform="rotate(0,708,180)"/><rect x="696" y="192" width="24" height="24" transform="rotate(0,708,204)"/><rect x="696" y="216" width="24" height="24" transform="rotate(0,708,228)"/><rect x="696" y="240" width="24" height="24" transform="rotate(0,708,252)"/><rect x="696" y="264" width="24" height="24" transform="rotate(0,708,276)"/><rect x="696" y="288" width="24" height="24" transform="rotate(0,708,300)"/><rect x="696" y="312" width="24" height="24" transform="rotate(0,708,324)"/><rect x="696" y="336" width="24" height="24" transform="rotate(0,708,348)"/><rect x="696" y="360" width="24" height="24" transform="rotate(0,708,372)"/><rect x="696" y="384" width="24" height="24" transform="rotate(0,708,396)"/><rect x="696" y="408" width="24" height="24" transform="rotate(0,708,420)"/><rect x="696" y="456" width="24" height="24" transform="rotate(0,708,468)"/><rect x="696" y="552" width="24" height="24" transform="rotate(0,708,564)"/><rect x="696" y="624" width="24" height="24" transform="rotate(0,708,636)"/><rect x="696" y="648" width="24" height="24" transform="rotate(0,708,660)"/><rect x="696" y="768" width="24" height="24" transform="rotate(0,708,780)"/><rect x="696" y="792" width="24" height="24" transform="rotate(0,708,804)"/><rect x="696" y="840" width="24" height="24" transform="rotate(0,708,852)"/><rect x="696" y="864" width="24" height="24" transform="rotate(0,708,876)"/><rect x="696" y="888" width="24" height="24" transform="rotate(0,708,900)"/><rect x="696" y="936" width="24" height="24" transform="rotate(0,708,948)"/><rect x="696" y="984" width="24" height="24" transform="rotate(0,708,996)"/><rect x="696" y="1008" width="24" height="24" transform="rotate(0,708,1020)"/><rect x="696" y="1032" width="24" height="24" transform="rotate(0,708,1044)"/><rect x="720" y="0" width="24" height="24" transform="rotate(0,732,12)"/><rect x="720" y="24" width="24" height="24" transform="rotate(0,732,36)"/><rect x="720" y="48" width="24" height="24" transform="rotate(0,732,60)"/><rect x="720" y="72" width="24" height="24" transform="rotate(0,732,84)"/><rect x="720" y="96" width="24" height="24" transform="rotate(0,732,108)"/><rect x="720" y="120" width="24" height="24" transform="rotate(0,732,132)"/><rect x="720" y="144" width="24" height="24" transform="rotate(0,732,156)"/><rect x="720" y="216" width="24" height="24" transform="rotate(0,732,228)"/><rect x="720" y="288" width="24" height="24" transform="rotate(0,732,300)"/><rect x="720" y="312" width="24" height="24" transform="rotate(0,732,324)"/><rect x="720" y="360" width="24" height="24" transform="rotate(0,732,372)"/><rect x="720" y="384" width="24" height="24" transform="rotate(0,732,396)"/><rect x="720" y="456" width="24" height="24" transform="rotate(0,732,468)"/><rect x="720" y="480" width="24" height="24" transform="rotate(0,732,492)"/><rect x="720" y="552" width="24" height="24" transform="rotate(0,732,564)"/><rect x="720" y="576" width="24" height="24" transform="rotate(0,732,588)"/><rect x="720" y="648" width="24" height="24" transform="rotate(0,732,660)"/><rect x="720" y="672" width="24" height="24" transform="rotate(0,732,684)"/><rect x="720" y="696" width="24" height="24" transform="rotate(0,732,708)"/><rect x="720" y="720" width="24" height="24" transform="rotate(0,732,732)"/><rect x="720" y="744" width="24" height="24" transform="rotate(0,732,756)"/><rect x="720" y="768" width="24" height="24" transform="rotate(0,732,780)"/><rect x="720" y="792" width="24" height="24" transform="rotate(0,732,804)"/><rect x="720" y="840" width="24" height="24" transform="rotate(0,732,852)"/><rect x="720" y="888" width="24" height="24" transform="rotate(0,732,900)"/><rect x="720" y="936" width="24" height="24" transform="rotate(0,732,948)"/><rect x="720" y="960" width="24" height="24" transform="rotate(0,732,972)"/><rect x="720" y="984" width="24" height="24" transform="rotate(0,732,996)"/><rect x="720" y="1032" width="24" height="24" transform="rotate(0,732,1044)"/><rect x="744" y="168" width="24" height="24" transform="rotate(0,756,180)"/><rect x="744" y="192" width="24" height="24" transform="rotate(0,756,204)"/><rect x="744" y="216" width="24" height="24" transform="rotate(0,756,228)"/><rect x="744" y="240" width="24" height="24" transform="rotate(0,756,252)"/><rect x="744" y="336" width="24" height="24" transform="rotate(0,756,348)"/><rect x="744" y="384" width="24" height="24" transform="rotate(0,756,396)"/><rect x="744" y="480" width="24" height="24" transform="rotate(0,756,492)"/><rect x="744" y="504" width="24" height="24" transform="rotate(0,756,516)"/><rect x="744" y="528" width="24" height="24" transform="rotate(0,756,540)"/><rect x="744" y="552" width="24" height="24" transform="rotate(0,756,564)"/><rect x="744" y="576" width="24" height="24" transform="rotate(0,756,588)"/><rect x="744" y="624" width="24" height="24" transform="rotate(0,756,636)"/><rect x="744" y="672" width="24" height="24" transform="rotate(0,756,684)"/><rect x="744" y="768" width="24" height="24" transform="rotate(0,756,780)"/><rect x="744" y="792" width="24" height="24" transform="rotate(0,756,804)"/><rect x="744" y="816" width="24" height="24" transform="rotate(0,756,828)"/><rect x="744" y="864" width="24" height="24" transform="rotate(0,756,876)"/><rect x="744" y="912" width="24" height="24" transform="rotate(0,756,924)"/><rect x="744" y="960" width="24" height="24" transform="rotate(0,756,972)"/><rect x="768" y="24" width="24" height="24" transform="rotate(0,780,36)"/><rect x="768" y="144" width="24" height="24" transform="rotate(0,780,156)"/><rect x="768" y="168" width="24" height="24" transform="rotate(0,780,180)"/><rect x="768" y="192" width="24" height="24" transform="rotate(0,780,204)"/><rect x="768" y="264" width="24" height="24" transform="rotate(0,780,276)"/><rect x="768" y="336" width="24" height="24" transform="rotate(0,780,348)"/><rect x="768" y="360" width="24" height="24" transform="rotate(0,780,372)"/><rect x="768" y="384" width="24" height="24" transform="rotate(0,780,396)"/><rect x="768" y="408" width="24" height="24" transform="rotate(0,780,420)"/><rect x="768" y="432" width="24" height="24" transform="rotate(0,780,444)"/><rect x="768" y="456" width="24" height="24" transform="rotate(0,780,468)"/><rect x="768" y="528" width="24" height="24" transform="rotate(0,780,540)"/><rect x="768" y="552" width="24" height="24" transform="rotate(0,780,564)"/><rect x="768" y="576" width="24" height="24" transform="rotate(0,780,588)"/><rect x="768" y="600" width="24" height="24" transform="rotate(0,780,612)"/><rect x="768" y="672" width="24" height="24" transform="rotate(0,780,684)"/><rect x="768" y="768" width="24" height="24" transform="rotate(0,780,780)"/><rect x="768" y="792" width="24" height="24" transform="rotate(0,780,804)"/><rect x="768" y="816" width="24" height="24" transform="rotate(0,780,828)"/><rect x="768" y="864" width="24" height="24" transform="rotate(0,780,876)"/><rect x="768" y="936" width="24" height="24" transform="rotate(0,780,948)"/><rect x="768" y="960" width="24" height="24" transform="rotate(0,780,972)"/><rect x="768" y="984" width="24" height="24" transform="rotate(0,780,996)"/><rect x="792" y="0" width="24" height="24" transform="rotate(0,804,12)"/><rect x="792" y="24" width="24" height="24" transform="rotate(0,804,36)"/><rect x="792" y="96" width="24" height="24" transform="rotate(0,804,108)"/><rect x="792" y="120" width="24" height="24" transform="rotate(0,804,132)"/><rect x="792" y="192" width="24" height="24" transform="rotate(0,804,204)"/><rect x="792" y="312" width="24" height="24" transform="rotate(0,804,324)"/><rect x="792" y="336" width="24" height="24" transform="rotate(0,804,348)"/><rect x="792" y="360" width="24" height="24" transform="rotate(0,804,372)"/><rect x="792" y="384" width="24" height="24" transform="rotate(0,804,396)"/><rect x="792" y="432" width="24" height="24" transform="rotate(0,804,444)"/><rect x="792" y="552" width="24" height="24" transform="rotate(0,804,564)"/><rect x="792" y="600" width="24" height="24" transform="rotate(0,804,612)"/><rect x="792" y="624" width="24" height="24" transform="rotate(0,804,636)"/><rect x="792" y="696" width="24" height="24" transform="rotate(0,804,708)"/><rect x="792" y="744" width="24" height="24" transform="rotate(0,804,756)"/><rect x="792" y="768" width="24" height="24" transform="rotate(0,804,780)"/><rect x="792" y="792" width="24" height="24" transform="rotate(0,804,804)"/><rect x="792" y="936" width="24" height="24" transform="rotate(0,804,948)"/><rect x="792" y="984" width="24" height="24" transform="rotate(0,804,996)"/><rect x="792" y="1008" width="24" height="24" transform="rotate(0,804,1020)"/><rect x="792" y="1032" width="24" height="24" transform="rotate(0,804,1044)"/><rect x="792" y="1056" width="24" height="24" transform="rotate(0,804,1068)"/><rect x="816" y="96" width="24" height="24" transform="rotate(0,828,108)"/><rect x="816" y="144" width="24" height="24" transform="rotate(0,828,156)"/><rect x="816" y="192" width="24" height="24" transform="rotate(0,828,204)"/><rect x="816" y="240" width="24" height="24" transform="rotate(0,828,252)"/><rect x="816" y="264" width="24" height="24" transform="rotate(0,828,276)"/><rect x="816" y="288" width="24" height="24" transform="rotate(0,828,300)"/><rect x="816" y="312" width="24" height="24" transform="rotate(0,828,324)"/><rect x="816" y="432" width="24" height="24" transform="rotate(0,828,444)"/><rect x="816" y="456" width="24" height="24" transform="rotate(0,828,468)"/><rect x="816" y="480" width="24" height="24" transform="rotate(0,828,492)"/><rect x="816" y="504" width="24" height="24" transform="rotate(0,828,516)"/><rect x="816" y="600" width="24" height="24" transform="rotate(0,828,612)"/><rect x="816" y="624" width="24" height="24" transform="rotate(0,828,636)"/><rect x="816" y="744" width="24" height="24" transform="rotate(0,828,756)"/><rect x="816" y="792" width="24" height="24" transform="rotate(0,828,804)"/><rect x="816" y="816" width="24" height="24" transform="rotate(0,828,828)"/><rect x="816" y="888" width="24" height="24" transform="rotate(0,828,900)"/><rect x="816" y="960" width="24" height="24" transform="rotate(0,828,972)"/><rect x="816" y="984" width="24" height="24" transform="rotate(0,828,996)"/><rect x="816" y="1032" width="24" height="24" transform="rotate(0,828,1044)"/><rect x="840" y="24" width="24" height="24" transform="rotate(0,852,36)"/><rect x="840" y="48" width="24" height="24" transform="rotate(0,852,60)"/><rect x="840" y="72" width="24" height="24" transform="rotate(0,852,84)"/><rect x="840" y="96" width="24" height="24" transform="rotate(0,852,108)"/><rect x="840" y="168" width="24" height="24" transform="rotate(0,852,180)"/><rect x="840" y="216" width="24" height="24" transform="rotate(0,852,228)"/><rect x="840" y="240" width="24" height="24" transform="rotate(0,852,252)"/><rect x="840" y="312" width="24" height="24" transform="rotate(0,852,324)"/><rect x="840" y="336" width="24" height="24" transform="rotate(0,852,348)"/><rect x="840" y="360" width="24" height="24" transform="rotate(0,852,372)"/><rect x="840" y="432" width="24" height="24" transform="rotate(0,852,444)"/><rect x="840" y="480" width="24" height="24" transform="rotate(0,852,492)"/><rect x="840" y="528" width="24" height="24" transform="rotate(0,852,540)"/><rect x="840" y="552" width="24" height="24" transform="rotate(0,852,564)"/><rect x="840" y="648" width="24" height="24" transform="rotate(0,852,660)"/><rect x="840" y="672" width="24" height="24" transform="rotate(0,852,684)"/><rect x="840" y="720" width="24" height="24" transform="rotate(0,852,732)"/><rect x="840" y="768" width="24" height="24" transform="rotate(0,852,780)"/><rect x="840" y="864" width="24" height="24" transform="rotate(0,852,876)"/><rect x="840" y="888" width="24" height="24" transform="rotate(0,852,900)"/><rect x="840" y="912" width="24" height="24" transform="rotate(0,852,924)"/><rect x="840" y="960" width="24" height="24" transform="rotate(0,852,972)"/><rect x="840" y="1056" width="24" height="24" transform="rotate(0,852,1068)"/><rect x="864" y="0" width="24" height="24" transform="rotate(0,876,12)"/><rect x="864" y="72" width="24" height="24" transform="rotate(0,876,84)"/><rect x="864" y="96" width="24" height="24" transform="rotate(0,876,108)"/><rect x="864" y="144" width="24" height="24" transform="rotate(0,876,156)"/><rect x="864" y="240" width="24" height="24" transform="rotate(0,876,252)"/><rect x="864" y="312" width="24" height="24" transform="rotate(0,876,324)"/><rect x="864" y="384" width="24" height="24" transform="rotate(0,876,396)"/><rect x="864" y="408" width="24" height="24" transform="rotate(0,876,420)"/><rect x="864" y="432" width="24" height="24" transform="rotate(0,876,444)"/><rect x="864" y="480" width="24" height="24" transform="rotate(0,876,492)"/><rect x="864" y="504" width="24" height="24" transform="rotate(0,876,516)"/><rect x="864" y="528" width="24" height="24" transform="rotate(0,876,540)"/><rect x="864" y="552" width="24" height="24" transform="rotate(0,876,564)"/><rect x="864" y="576" width="24" height="24" transform="rotate(0,876,588)"/><rect x="864" y="648" width="24" height="24" transform="rotate(0,876,660)"/><rect x="864" y="744" width="24" height="24" transform="rotate(0,876,756)"/><rect x="864" y="768" width="24" height="24" transform="rotate(0,876,780)"/><rect x="864" y="792" width="24" height="24" transform="rotate(0,876,804)"/><rect x="864" y="864" width="24" height="24" transform="rotate(0,876,876)"/><rect x="864" y="888" width="24" height="24" transform="rotate(0,876,900)"/><rect x="864" y="912" width="24" height="24" transform="rotate(0,876,924)"/><rect x="864" y="936" width="24" height="24" transform="rotate(0,876,948)"/><rect x="864" y="960" width="24" height="24" transform="rotate(0,876,972)"/><rect x="864" y="984" width="24" height="24" transform="rotate(0,876,996)"/><rect x="864" y="1032" width="24" height="24" transform="rotate(0,876,1044)"/><rect x="864" y="1056" width="24" height="24" transform="rotate(0,876,1068)"/><rect x="888" y="192" width="24" height="24" transform="rotate(0,900,204)"/><rect x="888" y="216" width="24" height="24" transform="rotate(0,900,228)"/><rect x="888" y="240" width="24" height="24" transform="rotate(0,900,252)"/><rect x="888" y="264" width="24" height="24" transform="rotate(0,900,276)"/><rect x="888" y="432" width="24" height="24" transform="rotate(0,900,444)"/><rect x="888" y="480" width="24" height="24" transform="rotate(0,900,492)"/><rect x="888" y="576" width="24" height="24" transform="rotate(0,900,588)"/><rect x="888" y="648" width="24" height="24" transform="rotate(0,900,660)"/><rect x="888" y="672" width="24" height="24" transform="rotate(0,900,684)"/><rect x="888" y="744" width="24" height="24" transform="rotate(0,900,756)"/><rect x="888" y="768" width="24" height="24" transform="rotate(0,900,780)"/><rect x="888" y="792" width="24" height="24" transform="rotate(0,900,804)"/><rect x="888" y="864" width="24" height="24" transform="rotate(0,900,876)"/><rect x="888" y="960" width="24" height="24" transform="rotate(0,900,972)"/><rect x="888" y="984" width="24" height="24" transform="rotate(0,900,996)"/><rect x="912" y="192" width="24" height="24" transform="rotate(0,924,204)"/><rect x="912" y="240" width="24" height="24" transform="rotate(0,924,252)"/><rect x="912" y="264" width="24" height="24" transform="rotate(0,924,276)"/><rect x="912" y="312" width="24" height="24" transform="rotate(0,924,324)"/><rect x="912" y="336" width="24" height="24" transform="rotate(0,924,348)"/><rect x="912" y="360" width="24" height="24" transform="rotate(0,924,372)"/><rect x="912" y="384" width="24" height="24" transform="rotate(0,924,396)"/><rect x="912" y="456" width="24" height="24" transform="rotate(0,924,468)"/><rect x="912" y="480" width="24" height="24" transform="rotate(0,924,492)"/><rect x="912" y="528" width="24" height="24" transform="rotate(0,924,540)"/><rect x="912" y="576" width="24" height="24" transform="rotate(0,924,588)"/><rect x="912" y="600" width="24" height="24" transform="rotate(0,924,612)"/><rect x="912" y="648" width="24" height="24" transform="rotate(0,924,660)"/><rect x="912" y="672" width="24" height="24" transform="rotate(0,924,684)"/><rect x="912" y="720" width="24" height="24" transform="rotate(0,924,732)"/><rect x="912" y="744" width="24" height="24" transform="rotate(0,924,756)"/><rect x="912" y="768" width="24" height="24" transform="rotate(0,924,780)"/><rect x="912" y="840" width="24" height="24" transform="rotate(0,924,852)"/><rect x="912" y="864" width="24" height="24" transform="rotate(0,924,876)"/><rect x="912" y="912" width="24" height="24" transform="rotate(0,924,924)"/><rect x="912" y="960" width="24" height="24" transform="rotate(0,924,972)"/><rect x="912" y="984" width="24" height="24" transform="rotate(0,924,996)"/><rect x="912" y="1008" width="24" height="24" transform="rotate(0,924,1020)"/><rect x="912" y="1032" width="24" height="24" transform="rotate(0,924,1044)"/><rect x="936" y="192" width="24" height="24" transform="rotate(0,948,204)"/><rect x="936" y="216" width="24" height="24" transform="rotate(0,948,228)"/><rect x="936" y="288" width="24" height="24" transform="rotate(0,948,300)"/><rect x="936" y="312" width="24" height="24" transform="rotate(0,948,324)"/><rect x="936" y="384" width="24" height="24" transform="rotate(0,948,396)"/><rect x="936" y="432" width="24" height="24" transform="rotate(0,948,444)"/><rect x="936" y="480" width="24" height="24" transform="rotate(0,948,492)"/><rect x="936" y="576" width="24" height="24" transform="rotate(0,948,588)"/><rect x="936" y="600" width="24" height="24" transform="rotate(0,948,612)"/><rect x="936" y="624" width="24" height="24" transform="rotate(0,948,636)"/><rect x="936" y="696" width="24" height="24" transform="rotate(0,948,708)"/><rect x="936" y="768" width="24" height="24" transform="rotate(0,948,780)"/><rect x="936" y="840" width="24" height="24" transform="rotate(0,948,852)"/><rect x="936" y="864" width="24" height="24" transform="rotate(0,948,876)"/><rect x="936" y="960" width="24" height="24" transform="rotate(0,948,972)"/><rect x="960" y="192" width="24" height="24" transform="rotate(0,972,204)"/><rect x="960" y="216" width="24" height="24" transform="rotate(0,972,228)"/><rect x="960" y="288" width="24" height="24" transform="rotate(0,972,300)"/><rect x="960" y="336" width="24" height="24" transform="rotate(0,972,348)"/><rect x="960" y="384" width="24" height="24" transform="rotate(0,972,396)"/><rect x="960" y="408" width="24" height="24" transform="rotate(0,972,420)"/><rect x="960" y="480" width="24" height="24" transform="rotate(0,972,492)"/><rect x="960" y="504" width="24" height="24" transform="rotate(0,972,516)"/><rect x="960" y="528" width="24" height="24" transform="rotate(0,972,540)"/><rect x="960" y="552" width="24" height="24" transform="rotate(0,972,564)"/><rect x="960" y="576" width="24" height="24" transform="rotate(0,972,588)"/><rect x="960" y="672" width="24" height="24" transform="rotate(0,972,684)"/><rect x="960" y="768" width="24" height="24" transform="rotate(0,972,780)"/><rect x="960" y="792" width="24" height="24" transform="rotate(0,972,804)"/><rect x="960" y="816" width="24" height="24" transform="rotate(0,972,828)"/><rect x="960" y="840" width="24" height="24" transform="rotate(0,972,852)"/><rect x="960" y="864" width="24" height="24" transform="rotate(0,972,876)"/><rect x="960" y="888" width="24" height="24" transform="rotate(0,972,900)"/><rect x="960" y="912" width="24" height="24" transform="rotate(0,972,924)"/><rect x="960" y="936" width="24" height="24" transform="rotate(0,972,948)"/><rect x="960" y="960" width="24" height="24" transform="rotate(0,972,972)"/><rect x="960" y="1032" width="24" height="24" transform="rotate(0,972,1044)"/><rect x="984" y="216" width="24" height="24" transform="rotate(0,996,228)"/><rect x="984" y="288" width="24" height="24" transform="rotate(0,996,300)"/><rect x="984" y="312" width="24" height="24" transform="rotate(0,996,324)"/><rect x="984" y="336" width="24" height="24" transform="rotate(0,996,348)"/><rect x="984" y="360" width="24" height="24" transform="rotate(0,996,372)"/><rect x="984" y="408" width="24" height="24" transform="rotate(0,996,420)"/><rect x="984" y="432" width="24" height="24" transform="rotate(0,996,444)"/><rect x="984" y="456" width="24" height="24" transform="rotate(0,996,468)"/><rect x="984" y="480" width="24" height="24" transform="rotate(0,996,492)"/><rect x="984" y="552" width="24" height="24" transform="rotate(0,996,564)"/><rect x="984" y="600" width="24" height="24" transform="rotate(0,996,612)"/><rect x="984" y="624" width="24" height="24" transform="rotate(0,996,636)"/><rect x="984" y="720" width="24" height="24" transform="rotate(0,996,732)"/><rect x="984" y="792" width="24" height="24" transform="rotate(0,996,804)"/><rect x="984" y="888" width="24" height="24" transform="rotate(0,996,900)"/><rect x="984" y="912" width="24" height="24" transform="rotate(0,996,924)"/><rect x="984" y="960" width="24" height="24" transform="rotate(0,996,972)"/><rect x="984" y="1008" width="24" height="24" transform="rotate(0,996,1020)"/><rect x="1008" y="216" width="24" height="24" transform="rotate(0,1020,228)"/><rect x="1008" y="288" width="24" height="24" transform="rotate(0,1020,300)"/><rect x="1008" y="312" width="24" height="24" transform="rotate(0,1020,324)"/><rect x="1008" y="384" width="24" height="24" transform="rotate(0,1020,396)"/><rect x="1008" y="432" width="24" height="24" transform="rotate(0,1020,444)"/><rect x="1008" y="456" width="24" height="24" transform="rotate(0,1020,468)"/><rect x="1008" y="480" width="24" height="24" transform="rotate(0,1020,492)"/><rect x="1008" y="504" width="24" height="24" transform="rotate(0,1020,516)"/><rect x="1008" y="528" width="24" height="24" transform="rotate(0,1020,540)"/><rect x="1008" y="576" width="24" height="24" transform="rotate(0,1020,588)"/><rect x="1008" y="720" width="24" height="24" transform="rotate(0,1020,732)"/><rect x="1008" y="744" width="24" height="24" transform="rotate(0,1020,756)"/><rect x="1008" y="792" width="24" height="24" transform="rotate(0,1020,804)"/><rect x="1008" y="840" width="24" height="24" transform="rotate(0,1020,852)"/><rect x="1008" y="888" width="24" height="24" transform="rotate(0,1020,900)"/><rect x="1008" y="912" width="24" height="24" transform="rotate(0,1020,924)"/><rect x="1008" y="936" width="24" height="24" transform="rotate(0,1020,948)"/><rect x="1008" y="960" width="24" height="24" transform="rotate(0,1020,972)"/><rect x="1008" y="984" width="24" height="24" transform="rotate(0,1020,996)"/><rect x="1032" y="216" width="24" height="24" transform="rotate(0,1044,228)"/><rect x="1032" y="240" width="24" height="24" transform="rotate(0,1044,252)"/><rect x="1032" y="264" width="24" height="24" transform="rotate(0,1044,276)"/><rect x="1032" y="288" width="24" height="24" transform="rotate(0,1044,300)"/><rect x="1032" y="312" width="24" height="24" transform="rotate(0,1044,324)"/><rect x="1032" y="336" width="24" height="24" transform="rotate(0,1044,348)"/><rect x="1032" y="360" width="24" height="24" transform="rotate(0,1044,372)"/><rect x="1032" y="408" width="24" height="24" transform="rotate(0,1044,420)"/><rect x="1032" y="456" width="24" height="24" transform="rotate(0,1044,468)"/><rect x="1032" y="480" width="24" height="24" transform="rotate(0,1044,492)"/><rect x="1032" y="504" width="24" height="24" transform="rotate(0,1044,516)"/><rect x="1032" y="600" width="24" height="24" transform="rotate(0,1044,612)"/><rect x="1032" y="624" width="24" height="24" transform="rotate(0,1044,636)"/><rect x="1032" y="720" width="24" height="24" transform="rotate(0,1044,732)"/><rect x="1032" y="768" width="24" height="24" transform="rotate(0,1044,780)"/><rect x="1056" y="264" width="24" height="24" transform="rotate(0,1068,276)"/><rect x="1056" y="288" width="24" height="24" transform="rotate(0,1068,300)"/><rect x="1056" y="312" width="24" height="24" transform="rotate(0,1068,324)"/><rect x="1056" y="360" width="24" height="24" transform="rotate(0,1068,372)"/><rect x="1056" y="408" width="24" height="24" transform="rotate(0,1068,420)"/><rect x="1056" y="432" width="24" height="24" transform="rotate(0,1068,444)"/><rect x="1056" y="480" width="24" height="24" transform="rotate(0,1068,492)"/><rect x="1056" y="552" width="24" height="24" transform="rotate(0,1068,564)"/><rect x="1056" y="624" width="24" height="24" transform="rotate(0,1068,636)"/><rect x="1056" y="648" width="24" height="24" transform="rotate(0,1068,660)"/><rect x="1056" y="720" width="24" height="24" transform="rotate(0,1068,732)"/><rect x="1056" y="744" width="24" height="24" transform="rotate(0,1068,756)"/><rect x="1056" y="768" width="24" height="24" transform="rotate(0,1068,780)"/><rect x="1056" y="840" width="24" height="24" transform="rotate(0,1068,852)"/><rect x="1056" y="936" width="24" height="24" transform="rotate(0,1068,948)"/><rect x="1056" y="984" width="24" height="24" transform="rotate(0,1068,996)"/><rect x="1056" y="1056" width="24" height="24" transform="rotate(0,1068,1068)"/><rect x="0" y="0" width="24" height="24" transform="rotate(0,12,12)"/><rect x="0" y="24" width="24" height="24" transform="rotate(0,12,36)"/><rect x="0" y="48" width="24" height="24" transform="rotate(0,12,60)"/><rect x="0" y="72" width="24" height="24" transform="rotate(0,12,84)"/><rect x="0" y="96" width="24" height="24" transform="rotate(0,12,108)"/><rect x="0" y="120" width="24" height="24" transform="rotate(0,12,132)"/><rect x="0" y="144" width="24" height="24" transform="rotate(0,12,156)"/><rect x="24" y="0" width="24" height="24" transform="rotate(0,36,12)"/><rect x="24" y="144" width="24" height="24" transform="rotate(0,36,156)"/><rect x="48" y="0" width="24" height="24" transform="rotate(0,60,12)"/><rect x="48" y="144" width="24" height="24" transform="rotate(0,60,156)"/><rect x="72" y="0" width="24" height="24" transform="rotate(0,84,12)"/><rect x="72" y="144" width="24" height="24" transform="rotate(0,84,156)"/><rect x="96" y="0" width="24" height="24" transform="rotate(0,108,12)"/><rect x="96" y="144" width="24" height="24" transform="rotate(0,108,156)"/><rect x="120" y="0" width="24" height="24" transform="rotate(0,132,12)"/><rect x="120" y="144" width="24" height="24" transform="rotate(0,132,156)"/><rect x="144" y="0" width="24" height="24" transform="rotate(0,156,12)"/><rect x="144" y="24" width="24" height="24" transform="rotate(0,156,36)"/><rect x="144" y="48" width="24" height="24" transform="rotate(0,156,60)"/><rect x="144" y="72" width="24" height="24" transform="rotate(0,156,84)"/><rect x="144" y="96" width="24" height="24" transform="rotate(0,156,108)"/><rect x="144" y="120" width="24" height="24" transform="rotate(0,156,132)"/><rect x="144" y="144" width="24" height="24" transform="rotate(0,156,156)"/><rect x="48" y="48" width="24" height="24" transform="rotate(0,60,60)"/><rect x="48" y="72" width="24" height="24" transform="rotate(0,60,84)"/><rect x="48" y="96" width="24" height="24" transform="rotate(0,60,108)"/><rect x="72" y="48" width="24" height="24" transform="rotate(0,84,60)"/><rect x="72" y="72" width="24" height="24" transform="rotate(0,84,84)"/><rect x="72" y="96" width="24" height="24" transform="rotate(0,84,108)"/><rect x="96" y="48" width="24" height="24" transform="rotate(0,108,60)"/><rect x="96" y="72" width="24" height="24" transform="rotate(0,108,84)"/><rect x="96" y="96" width="24" height="24" transform="rotate(0,108,108)"/><rect x="912" y="0" width="24" height="24" transform="rotate(0,924,12)"/><rect x="912" y="24" width="24" height="24" transform="rotate(0,924,36)"/><rect x="912" y="48" width="24" height="24" transform="rotate(0,924,60)"/><rect x="912" y="72" width="24" height="24" transform="rotate(0,924,84)"/><rect x="912" y="96" width="24" height="24" transform="rotate(0,924,108)"/><rect x="912" y="120" width="24" height="24" transform="rotate(0,924,132)"/><rect x="912" y="144" width="24" height="24" transform="rotate(0,924,156)"/><rect x="936" y="0" width="24" height="24" transform="rotate(0,948,12)"/><rect x="936" y="144" width="24" height="24" transform="rotate(0,948,156)"/><rect x="960" y="0" width="24" height="24" transform="rotate(0,972,12)"/><rect x="960" y="144" width="24" height="24" transform="rotate(0,972,156)"/><rect x="984" y="0" width="24" height="24" transform="rotate(0,996,12)"/><rect x="984" y="144" width="24" height="24" transform="rotate(0,996,156)"/><rect x="1008" y="0" width="24" height="24" transform="rotate(0,1020,12)"/><rect x="1008" y="144" width="24" height="24" transform="rotate(0,1020,156)"/><rect x="1032" y="0" width="24" height="24" transform="rotate(0,1044,12)"/><rect x="1032" y="144" width="24" height="24" transform="rotate(0,1044,156)"/><rect x="1056" y="0" width="24" height="24" transform="rotate(0,1068,12)"/><rect x="1056" y="24" width="24" height="24" transform="rotate(0,1068,36)"/><rect x="1056" y="48" width="24" height="24" transform="rotate(0,1068,60)"/><rect x="1056" y="72" width="24" height="24" transform="rotate(0,1068,84)"/><rect x="1056" y="96" width="24" height="24" transform="rotate(0,1068,108)"/><rect x="1056" y="120" width="24" height="24" transform="rotate(0,1068,132)"/><rect x="1056" y="144" width="24" height="24" transform="rotate(0,1068,156)"/><rect x="960" y="48" width="24" height="24" transform="rotate(0,972,60)"/><rect x="960" y="72" width="24" height="24" transform="rotate(0,972,84)"/><rect x="960" y="96" width="24" height="24" transform="rotate(0,972,108)"/><rect x="984" y="48" width="24" height="24" transform="rotate(0,996,60)"/><rect x="984" y="72" width="24" height="24" transform="rotate(0,996,84)"/><rect x="984" y="96" width="24" height="24" transform="rotate(0,996,108)"/><rect x="1008" y="48" width="24" height="24" transform="rotate(0,1020,60)"/><rect x="1008" y="72" width="24" height="24" transform="rotate(0,1020,84)"/><rect x="1008" y="96" width="24" height="24" transform="rotate(0,1020,108)"/><rect x="0" y="912" width="24" height="24" transform="rotate(0,12,924)"/><rect x="0" y="936" width="24" height="24" transform="rotate(0,12,948)"/><rect x="0" y="960" width="24" height="24" transform="rotate(0,12,972)"/><rect x="0" y="984" width="24" height="24" transform="rotate(0,12,996)"/><rect x="0" y="1008" width="24" height="24" transform="rotate(0,12,1020)"/><rect x="0" y="1032" width="24" height="24" transform="rotate(0,12,1044)"/><rect x="0" y="1056" width="24" height="24" transform="rotate(0,12,1068)"/><rect x="24" y="912" width="24" height="24" transform="rotate(0,36,924)"/><rect x="24" y="1056" width="24" height="24" transform="rotate(0,36,1068)"/><rect x="48" y="912" width="24" height="24" transform="rotate(0,60,924)"/><rect x="48" y="1056" width="24" height="24" transform="rotate(0,60,1068)"/><rect x="72" y="912" width="24" height="24" transform="rotate(0,84,924)"/><rect x="72" y="1056" width="24" height="24" transform="rotate(0,84,1068)"/><rect x="96" y="912" width="24" height="24" transform="rotate(0,108,924)"/><rect x="96" y="1056" width="24" height="24" transform="rotate(0,108,1068)"/><rect x="120" y="912" width="24" height="24" transform="rotate(0,132,924)"/><rect x="120" y="1056" width="24" height="24" transform="rotate(0,132,1068)"/><rect x="144" y="912" width="24" height="24" transform="rotate(0,156,924)"/><rect x="144" y="936" width="24" height="24" transform="rotate(0,156,948)"/><rect x="144" y="960" width="24" height="24" transform="rotate(0,156,972)"/><rect x="144" y="984" width="24" height="24" transform="rotate(0,156,996)"/><rect x="144" y="1008" width="24" height="24" transform="rotate(0,156,1020)"/><rect x="144" y="1032" width="24" height="24" transform="rotate(0,156,1044)"/><rect x="144" y="1056" width="24" height="24" transform="rotate(0,156,1068)"/><rect x="48" y="960" width="24" height="24" transform="rotate(0,60,972)"/><rect x="48" y="984" width="24" height="24" transform="rotate(0,60,996)"/><rect x="48" y="1008" width="24" height="24" transform="rotate(0,60,1020)"/><rect x="72" y="960" width="24" height="24" transform="rotate(0,84,972)"/><rect x="72" y="984" width="24" height="24" transform="rotate(0,84,996)"/><rect x="72" y="1008" width="24" height="24" transform="rotate(0,84,1020)"/><rect x="96" y="960" width="24" height="24" transform="rotate(0,108,972)"/><rect x="96" y="984" width="24" height="24" transform="rotate(0,108,996)"/><rect x="96" y="1008" width="24" height="24" transform="rotate(0,108,1020)"/></clipPath></defs><rect x="0" y="0" height="1080" width="1080" clip-path="url('#clip-path-background-color')" fill="#ffffff"/><rect x="0" y="0" height="1080" width="1080" clip-path="url('#clip-path-dot-color')" fill="#000000"/></svg>