<?xml version="1.0" encoding="UTF-8" standalone="no"?>
<!-- Created with Inkscape (http://www.inkscape.org/) -->

<svg
   width="54.992649mm"
   height="58.261547mm"
   viewBox="0 0 54.992649 58.261547"
   version="1.1"
   id="svg1"
   xml:space="preserve"
   inkscape:version="1.3 (0e150ed6c4, 2023-07-21)"
   sodipodi:docname="python-tooling-paralysis-of-choice.svg"
   xmlns:inkscape="http://www.inkscape.org/namespaces/inkscape"
   xmlns:sodipodi="http://sodipodi.sourceforge.net/DTD/sodipodi-0.dtd"
   xmlns:xlink="http://www.w3.org/1999/xlink"
   xmlns="http://www.w3.org/2000/svg"
   xmlns:svg="http://www.w3.org/2000/svg"><sodipodi:namedview
     id="namedview1"
     pagecolor="#ffffff"
     bordercolor="#666666"
     borderopacity="1.0"
     inkscape:showpageshadow="2"
     inkscape:pageopacity="0.0"
     inkscape:pagecheckerboard="0"
     inkscape:deskcolor="#d1d1d1"
     inkscape:document-units="mm"
     inkscape:zoom="0.97890839"
     inkscape:cx="33.71102"
     inkscape:cy="171.10896"
     inkscape:window-width="1920"
     inkscape:window-height="991"
     inkscape:window-x="1341"
     inkscape:window-y="1344"
     inkscape:window-maximized="1"
     inkscape:current-layer="layer1" /><defs
     id="defs1"><linearGradient
       id="linearGradient4689"><stop
         style="stop-color:#5a9fd4;stop-opacity:1;"
         offset="0"
         id="stop4691" /><stop
         style="stop-color:#306998;stop-opacity:1;"
         offset="1"
         id="stop4693" /></linearGradient><linearGradient
       id="linearGradient4671"><stop
         style="stop-color:#ffd43b;stop-opacity:1;"
         offset="0"
         id="stop4673" /><stop
         style="stop-color:#ffe873;stop-opacity:1"
         offset="1"
         id="stop4675" /></linearGradient><linearGradient
       id="linearGradient2795"><stop
         style="stop-color:#b8b8b8;stop-opacity:0.49803922;"
         offset="0"
         id="stop2797" /><stop
         style="stop-color:#7f7f7f;stop-opacity:0;"
         offset="1"
         id="stop2799" /></linearGradient><linearGradient
       inkscape:collect="always"
       xlink:href="#linearGradient4671"
       id="linearGradient8"
       x1="271.12625"
       y1="168.56261"
       x2="175.13432"
       y2="49.890629"
       gradientUnits="userSpaceOnUse" /><linearGradient
       inkscape:collect="always"
       xlink:href="#linearGradient4689"
       id="linearGradient10"
       x1="97.406799"
       y1="220.00127"
       x2="113.9578"
       y2="232.04218"
       gradientUnits="userSpaceOnUse" /><linearGradient
       inkscape:collect="always"
       xlink:href="#linearGradient4671"
       id="linearGradient11"
       gradientUnits="userSpaceOnUse"
       x1="271.12625"
       y1="168.56261"
       x2="175.13432"
       y2="49.890629" /></defs><g
     inkscape:label="Layer 1"
     inkscape:groupmode="layer"
     id="layer1"
     transform="translate(-77.485444,-197.93457)"><g
       id="g8449"
       transform="matrix(0.26458333,0,0,0.26458333,44.167727,211.44278)"
       style="fill:url(#linearGradient8);stroke:none;stroke-width:0.680727"><path
         id="path3"
         style="fill:url(#linearGradient11);fill-opacity:1;stroke:none;stroke-width:1px;stroke-linecap:butt;stroke-linejoin:miter;stroke-opacity:1"
         d="m 167.85545,27.843738 c -3.68686,0.09833 -7.72991,1.712172 -11.28125,5.287109 -11.36427,11.439798 -30.90243,45.728843 -30.64648,54.140626 0.56307,18.505587 38.76773,35.279957 46.39258,50.453127 2.57251,5.11918 1.74805,30.63281 1.74805,30.63281 l 55.78125,0.78906 55.7832,-0.78906 c 0,0 -0.82446,-25.51363 1.74805,-30.63281 7.62485,-15.17317 46.39062,-32.95824 46.39062,-50.453127 0,-8.415676 -19.28025,-42.700828 -30.64453,-54.140626 -11.36428,-11.439797 -27.7675,-2.791587 -21.4043,11.300782 6.36321,14.092368 21.2501,28.182217 20.64649,38.662109 -0.60361,10.479893 -31.30592,32.238282 -72.51953,32.238282 -41.21361,0 -71.91397,-21.758389 -72.51758,-32.238282 -0.60361,-10.479892 14.28328,-24.569741 20.64648,-38.662109 4.3747,-9.688504 -2.01194,-16.804221 -10.12305,-16.587891 z"
         sodipodi:nodetypes="sssscccssssszsss" /></g><g
       id="g6"
       transform="translate(-0.47240487)"><text
         xml:space="preserve"
         style="font-style:normal;font-weight:normal;font-size:19.3653px;line-height:1.25;font-family:sans-serif;fill:#3874a4;fill-opacity:1;stroke:none;stroke-width:0.264584"
         x="-26.494312"
         y="235.65781"
         id="text4"
         transform="rotate(-30)"><tspan
           sodipodi:role="line"
           id="tspan4"
           x="-26.494312"
           y="235.65781"
           style="font-style:normal;font-variant:normal;font-weight:normal;font-stretch:normal;font-family:'Arial Rounded MT Bold';-inkscape-font-specification:'Arial Rounded MT Bold, ';fill:#3874a4;fill-opacity:1;stroke-width:0.264584">?</tspan></text><text
         xml:space="preserve"
         style="font-style:normal;font-weight:normal;font-size:19.3653px;line-height:1.25;font-family:sans-serif;fill:#ffdf59;fill-opacity:1;stroke:none;stroke-width:0.264584"
         x="99.875305"
         y="212.03304"
         id="text5"><tspan
           sodipodi:role="line"
           id="tspan5"
           x="99.875305"
           y="212.03304"
           style="font-style:normal;font-variant:normal;font-weight:normal;font-stretch:normal;font-family:'Arial Rounded MT Bold';-inkscape-font-specification:'Arial Rounded MT Bold, ';fill:#ffdf59;fill-opacity:1;stroke-width:0.264584">?</tspan></text><text
         xml:space="preserve"
         style="font-style:normal;font-weight:normal;font-size:19.3653px;line-height:1.25;font-family:sans-serif;fill:#3874a4;fill-opacity:1;stroke:none;stroke-width:0.264584"
         x="197.98856"
         y="130.20363"
         id="text6"
         transform="rotate(30)"><tspan
           sodipodi:role="line"
           id="tspan6"
           x="197.98856"
           y="130.20363"
           style="font-style:normal;font-variant:normal;font-weight:normal;font-stretch:normal;font-family:'Arial Rounded MT Bold';-inkscape-font-specification:'Arial Rounded MT Bold, ';fill:#3874a4;fill-opacity:1;stroke-width:0.264584">?</tspan></text></g><path
       id="path6"
       style="fill:url(#linearGradient10);fill-opacity:1;stroke:none;stroke-width:1"
       d="m 105.02666,215.86589 a 9.8693914,11.34792 0 0 0 -9.869678,11.34763 9.8693914,11.34792 0 0 0 7.556128,11.00501 v -6.08179 a 4.4962032,4.4962032 0 0 1 -2.22674,-3.87057 4.4962032,4.4962032 0 0 1 2.22674,-3.8809 v 3.20859 c 0,0.69838 0.56201,1.2604 1.26039,1.26039 h 2.01745 c 0.69839,1e-5 1.26038,-0.56201 1.26038,-1.26039 v -3.19825 a 4.4962032,4.4962032 0 0 1 2.22674,3.87056 4.4962032,4.4962032 0 0 1 -2.22674,3.87057 v 6.10402 a 9.8693914,11.34792 0 0 0 7.6445,-11.02724 9.8693914,11.34792 0 0 0 -9.86917,-11.34763 z" /></g></svg>
